<svg width="20" height="20" viewBox="0 0 20 20" fill="none" xmlns="http://www.w3.org/2000/svg">
<path d="M16 6.00002H13.3333C13.3333 4.16002 11.84 2.66669 10 2.66669C8.16 2.66669 6.66667 4.16002 6.66667 6.00002H4V16.6667H16V6.00002ZM10 4.00002C11.1067 4.00002 12 4.89335 12 6.00002H8C8 4.89335 8.89333 4.00002 10 4.00002ZM10 10.6667C8.16 10.6667 6.66667 9.17335 6.66667 7.33335H8C8 8.44002 8.89333 9.33335 10 9.33335C11.1067 9.33335 12 8.44002 12 7.33335H13.3333C13.3333 9.17335 11.84 10.6667 10 10.6667Z" fill="white"/>
</svg>
