<svg width="20" height="20" viewBox="0 0 20 20" fill="none" xmlns="http://www.w3.org/2000/svg">
<path d="M10 14.6667H11.3334V5.99999L15.596 7.82666C15.716 7.8781 15.8183 7.96364 15.8901 8.07267C15.9619 8.18171 16.0001 8.30943 16 8.43999V14.6667H17.3334V16H2.66669V14.6667H4.00002V5.76666C4 5.63767 4.03741 5.51144 4.1077 5.40329C4.17799 5.29513 4.27814 5.20969 4.39602 5.15732L9.53135 2.87466C9.58216 2.85209 9.6378 2.84258 9.69322 2.847C9.74863 2.85143 9.80206 2.86964 9.84864 2.89999C9.89522 2.93034 9.93347 2.97185 9.95991 3.02075C9.98635 3.06966 10.0001 3.1244 10 3.17999V14.6667Z" fill="white"/>
</svg>
